# xmcd
#
# Track frame offsets:
#	150
#	15700
#	31010
#	46572
#	59145
#	75987
#	88870
#	100712
#	111037
#	121687
#	133810
#	145282
#
# Disc length: 2338 seconds
#
# Revision: 0
# Processed by: cddbd v1.5.2PL0 Copyright (c) Steve Scherf et al.
# Submitted via: EasyCDDAExtractor 2011.0.0.0
#
DISCID=9109200c
DTITLE=김영임 - 김영임 한국민요 1집
DYEAR=1900
DGENRE=Ambient
TTITLE0=창부타령
TTITLE1=한오백년
TTITLE2=방아타령
TTITLE3=태평가
TTITLE4=임타령
TTITLE5=양산도
TTITLE6=뱃노래
TTITLE7=사발가
TTITLE8=서울올림픽
TTITLE9=풍년가
TTITLE10=도라지타령
TTITLE11=긴 아리랑
EXTD=
EXTT0=
EXTT1=
EXTT2=
EXTT3=
EXTT4=
EXTT5=
EXTT6=
EXTT7=
EXTT8=
EXTT9=
EXTT10=
EXTT11=
PLAYORDER=
